<svg class="defs">
	<defs>

		<symbol id="slash" viewBox="0 0 22 27">
			<polygon points="0.996 27 22 0 21.004 0 0 27 0.996 27"/>
		</symbol>

		<symbol id="mark" viewBox="0 0 100 78">
			<path d="M79.772,39.732,89.317,52H100L79.772,26,64.886,45.134,60.114,39,70.228,26l9.544-12.268L89.317,26H100L79.772,0,64.886,19.134,50,0,35.114,19.134,20.228,0,0,26H10.683l9.545-12.268L29.772,26h0L25,32.134,20.228,26,0,52H10.683l9.545-12.268L29.772,52h0L25,58.134,20.228,52,0,78H10.683l9.545-12.268L29.772,78H40.455L50,65.732,59.545,78H70.228l9.544-12.268L89.317,78H100L79.772,52,64.886,71.134,60.114,65,70.228,52ZM40.455,26,50,13.732,59.545,26l-4.773,6.134L50,26,35.114,45.134,30.342,39ZM50,52,35.114,71.134,30.342,65,40.455,52,50,39.732,59.545,52l-4.773,6.134Z"/>
		</symbol>

		<symbol id="logo" viewBox="0 0 150 32.735">
			<path d="M17.442,19.388H7.861l-4.1,5.5H0L18.335.786l3.449,24.1h-3.63Zm-.4-3.276L15.984,8.4l-5.73,7.715Z"/><path d="M36.724,0,29.309,24.884H26.016L33.43,0Z"/><path d="M42.259,13.585l-3.371,11.3H35.593l3.371-11.3H37.586l.912-3.072h1.378l1.566-5.257h3.295l-1.566,5.257h2.522l-.912,3.072Z"/><path d="M46.711,21.88a2.619,2.619,0,0,1,1.768-.682,1.459,1.459,0,0,1,1.221.512,1.605,1.605,0,0,1,.3,1.366,2.816,2.816,0,0,1-.956,1.6,2.609,2.609,0,0,1-1.655.614,1.631,1.631,0,0,1-1.26-.478,1.6,1.6,0,0,1-.3-1.366A2.918,2.918,0,0,1,46.711,21.88Z"/><path d="M67.877,2.117c2.521,0,5.929.307,8.107,2.833,1.983,2.288,1.826,5.086,1.411,7.441a14.367,14.367,0,0,1-4.725,8.875c-3.806,3.277-8.438,3.618-12.1,3.618H56.4L63.171,2.117ZM60.81,21.607h1.48c2.252,0,5.873-.136,8.68-2.9a10.63,10.63,0,0,0,2.912-5.838c.44-2.492-.009-4.334-.886-5.461C71.483,5.5,68.677,5.393,67.1,5.393H65.619Z"/><path d="M91.935,21.607a10.352,10.352,0,0,1-3.1,2.7,8.617,8.617,0,0,1-4.148,1.024,4.958,4.958,0,0,1-4.219-1.809A6.246,6.246,0,0,1,79.456,18.4a10.411,10.411,0,0,1,3.539-6.144,8.365,8.365,0,0,1,5.55-2.116,4.722,4.722,0,0,1,3.974,1.672,6.418,6.418,0,0,1,.864,5.019,9.07,9.07,0,0,1-.464,1.672H82.8a3.905,3.905,0,0,0,.53,2.9,2.571,2.571,0,0,0,2.157.921,4.953,4.953,0,0,0,2.367-.648,6.38,6.38,0,0,0,1.768-1.638Zm-1.56-5.837a3.478,3.478,0,0,0-.491-1.979A2.349,2.349,0,0,0,87.972,13a4.355,4.355,0,0,0-2.536.854,6.411,6.411,0,0,0-1.649,1.911Z"/><path d="M104.414,14.3a1.627,1.627,0,0,0-.516-.888,1.242,1.242,0,0,0-.949-.341,1.842,1.842,0,0,0-1.216.41,1.366,1.366,0,0,0-.435.751.828.828,0,0,0,.259.819,6.168,6.168,0,0,0,1.246.751l.857.478a5.067,5.067,0,0,1,1.565,1.229,3.679,3.679,0,0,1,.552,2.97,5.7,5.7,0,0,1-2.026,3.482,6.463,6.463,0,0,1-4.207,1.365,4.6,4.6,0,0,1-3-.921,4.2,4.2,0,0,1-1.284-2.628l3.085-1.3a2.434,2.434,0,0,0,.527,1.4,1.7,1.7,0,0,0,1.287.512,2.223,2.223,0,0,0,1.39-.443,1.871,1.871,0,0,0,.76-1.264,1.423,1.423,0,0,0-.26-1.195,3.872,3.872,0,0,0-1.2-.82l-.824-.477A5.833,5.833,0,0,1,98.609,17.1a2.871,2.871,0,0,1-.536-2.493,5.468,5.468,0,0,1,5.562-4.471,3.662,3.662,0,0,1,2.334.682,4.1,4.1,0,0,1,1.288,1.843Z"/><path d="M115.77,10.513l-4.282,14.371h-3.295l4.282-14.371Zm-1.087-7.372a2.88,2.88,0,0,1,1.841-.717,1.567,1.567,0,0,1,1.254.512,1.58,1.58,0,0,1,.309,1.3,3.358,3.358,0,0,1-.979,1.741,2.936,2.936,0,0,1-1.914.751,1.458,1.458,0,0,1-1.221-.512,1.527,1.527,0,0,1-.31-1.3A3.076,3.076,0,0,1,114.683,3.141Z"/><path d="M130.964,10.513h3.295l-4.182,14c-.509,1.741-1.354,4.438-3.168,6.145a8.389,8.389,0,0,1-5.813,2.082,5.376,5.376,0,0,1-3.928-1.365,5.9,5.9,0,0,1-1.291-4.882h3.193a3.564,3.564,0,0,0,.481,2.424,2.743,2.743,0,0,0,2.242.818,4.22,4.22,0,0,0,2.831-.99,7.5,7.5,0,0,0,1.982-3.617l.561-1.844a5.721,5.721,0,0,1-4.463,2.048,5.116,5.116,0,0,1-4.146-1.844,6.057,6.057,0,0,1-1.046-5.12,10.764,10.764,0,0,1,3.622-6.247,7.875,7.875,0,0,1,5.526-1.979,4.094,4.094,0,0,1,3.826,1.945ZM122.983,14.4a6.981,6.981,0,0,0-2.013,3.789,3.79,3.79,0,0,0,.519,2.969,2.934,2.934,0,0,0,2.384,1.16,4.6,4.6,0,0,0,3.074-1.228,6.687,6.687,0,0,0,2.217-3.993,3.567,3.567,0,0,0-.557-2.936,2.8,2.8,0,0,0-2.274-1.024A5.136,5.136,0,0,0,122.983,14.4Z"/><path d="M139.062,10.513h3.295l-.4,1.3a5.092,5.092,0,0,1,1.61-1.125,5.8,5.8,0,0,1,2.517-.546,3.8,3.8,0,0,1,3.145,1.229,4.161,4.161,0,0,1,.676,3.414,29.7,29.7,0,0,1-.839,3.037l-2.12,7.066h-3.295l2.215-7.407a15.609,15.609,0,0,0,.5-1.912,2.211,2.211,0,0,0-.314-1.843,2.106,2.106,0,0,0-1.579-.58,3.449,3.449,0,0,0-2.256.786,8.128,8.128,0,0,0-2.089,4.027l-2.062,6.93H134.78Z"/>
		</symbol>

		<symbol id="twitter" viewBox="0 0 20 20">
			<path d="M17.316,6.246c0.008,0.162,0.011,0.326,0.011,0.488c0,4.99-3.797,10.742-10.74,10.742c-2.133,0-4.116-0.625-5.787-1.697 c0.296,0.035,0.596,0.053,0.9,0.053c1.77,0,3.397-0.604,4.688-1.615c-1.651-0.031-3.046-1.121-3.526-2.621	c0.23,0.043,0.467,0.066,0.71,0.066c0.345,0,0.679-0.045,0.995-0.131c-1.727-0.348-3.028-1.873-3.028-3.703c0-0.016,0-0.031,0-0.047	c0.509,0.283,1.092,0.453,1.71,0.473c-1.013-0.678-1.68-1.832-1.68-3.143c0-0.691,0.186-1.34,0.512-1.898 C3.942,5.498,6.725,7,9.862,7.158C9.798,6.881,9.765,6.594,9.765,6.297c0-2.084,1.689-3.773,3.774-3.773 c1.086,0,2.067,0.457,2.756,1.191c0.859-0.17,1.667-0.484,2.397-0.916c-0.282,0.881-0.881,1.621-1.66,2.088 c0.764-0.092,1.49-0.293,2.168-0.594C18.694,5.051,18.054,5.715,17.316,6.246z"/>
		</symbol>

		<symbol id="fb" viewBox="0 0 32 32">
			<path d="M19 6h5v-6h-5c-3.86 0-7 3.14-7 7v3h-4v6h4v16h6v-16h5l1-6h-6v-3c0-0.542 0.458-1 1-1z"></path>
		</symbol>

		<symbol id="insta" viewBox="0 0 22 22">
			<path d="M15.626,22H6.374A6.382,6.382,0,0,1,0,15.629V6.38A6.383,6.383,0,0,1,6.374,0h9.252A6.383,6.383,0,0,1,22,6.38v9.249A6.382,6.382,0,0,1,15.626,22ZM6.374,1.914A4.469,4.469,0,0,0,1.909,6.38v9.249A4.473,4.473,0,0,0,6.374,20.1h9.252a4.473,4.473,0,0,0,4.466-4.468V6.38a4.469,4.469,0,0,0-4.466-4.466Z"/><path d="M11,16.607A5.609,5.609,0,1,1,16.607,11,5.611,5.611,0,0,1,11,16.607Zm0-9.3A3.7,3.7,0,1,0,14.7,11,3.7,3.7,0,0,0,11,7.3Z"/><circle cx="16.883" cy="5.121" r="1.132" transform="translate(1.313 13.419) rotate(-44.929)"/>
		</symbol>

		<symbol id="page-top" viewBox="176 1697.922 23.259 14.978">
			<path d="M6.129,14.978l5.52-7.063,5.48,7.063h6.129L11.65,0,0,14.978Z" transform="translate(176 1697.922)"/>
		</symbol>

	</defs>
</svg>